# xmcd
#
# Track frame offsets:
#	150
#	17348
#	33735
#	52736
#	70199
#	85887
#	99690
#	115769
#	134780
#	146606
#	158000
#	171543
#	185953
#	203821
#	219828
#	233436
#	251026
#	264427
#
# Disc length: 3695 seconds
#
# Revision: 2
# Processed by: cddbd v1.5.2PL0 Copyright (c) Steve Scherf et al.
# Submitted via: audiograbber 1.83.01
#
DISCID=000e6d12
DTITLE=Various Artist - CDXMAS 1021
DYEAR=2006
DGENRE=Country
TTITLE0=Vince Vance and The Valiants - All I Want For Christmas Is You
TTITLE1=Doug Wayne - Almost Time For Christmas
TTITLE2=Pirates Of The Mississippi - A Snowman In Birmingham
TTITLE3=Brian Sauer - A Soldier's Christmas
TTITLE4=Vince Vance and The Valiants - Christmas Just Ain't Christmas Without You
TTITLE5=Billy Gilman - I'll Be Home For Christmas
TTITLE6=Joe Louis Puerta - I'm Comin' Home For Christmas
TTITLE7=Kacey Jones - I'm Down To My Christmas Underwear
TTITLE8=The Geezinslaws - Lighten Up It's Christmas
TTITLE9=The Geezinslaws - Randolf, The Brown Nosed Reindeer
TTITLE10=JP and Red Fontaine - Let's Hitch A Ride On Santa's Sleigh
TTITLE11=Todd Fritsch - Mary Had A Little Boy
TTITLE12=Native Mind - Rockin' Santa Claus
TTITLE13=Lisa Layne - Santa Baby
TTITLE14=Joshua Motohashi - Sleigh Ride
TTITLE15=Doug Wayne - That Star Still Shines
TTITLE16=CW Colt - The Christmas Love Song
TTITLE17=4 Sisters and A Cousin - White Christmas
EXTD=
EXTT0=
EXTT1=
EXTT2=
EXTT3=
EXTT4=
EXTT5=
EXTT6=
EXTT7=
EXTT8=
EXTT9=
EXTT10=
EXTT11=
EXTT12=
EXTT13=
EXTT14=
EXTT15=
EXTT16=
EXTT17=
PLAYORDER=
